<svg width="412" height="309" viewBox="0 0 412 309" fill="none" xmlns="http://www.w3.org/2000/svg">
<path d="M411.423 1H1V308.543H411.423V1Z" stroke="#FEFEFE" stroke-width="0.00694465"/>
<path d="M273.885 181.527L143.24 166.24L145.548 168.188L276.193 183.476L273.885 181.527Z" fill="black"/>
<path d="M240.743 156.855L151.595 177.774L153.761 178.962L242.908 158.043L240.743 156.855Z" fill="black"/>
<path d="M244.243 132.081L148.474 176.342L151.262 177.144L247.031 132.883L244.243 132.081Z" fill="black"/>
<path d="M199.827 126.576L152.659 168.203L154.327 168.335L201.496 126.708L199.827 126.576Z" fill="black"/>
<path d="M295.158 216.166L169.708 169.619L171.432 171.825L296.882 218.373L295.158 216.166Z" fill="black"/>
<path fill-rule="evenodd" clip-rule="evenodd" d="M252.562 101.654C265.092 101.654 275.236 110.358 275.236 121.108C275.236 131.895 265.092 140.599 252.562 140.599C240.031 140.599 229.887 131.895 229.887 121.108C229.887 110.358 240.031 101.654 252.562 101.654Z" stroke="black"/>
<path d="M252.562 102.154C264.891 102.154 274.736 110.704 274.736 121.108C274.736 131.551 264.89 140.099 252.562 140.099C240.233 140.099 230.387 131.551 230.387 121.108C230.387 110.704 240.232 102.154 252.562 102.154Z" fill="#FEFEFE" stroke="black"/>
<path fill-rule="evenodd" clip-rule="evenodd" d="M201.465 88.4387C215.067 88.4387 226.091 98.1394 226.091 110.099C226.091 122.059 215.067 131.76 201.465 131.76C187.907 131.76 176.883 122.059 176.883 110.099C176.883 98.1394 187.907 88.4387 201.465 88.4387Z" stroke="black"/>
<path d="M201.465 88.9387C214.853 88.9387 225.591 98.4738 225.591 110.099C225.591 121.725 214.853 131.26 201.465 131.26C188.122 131.26 177.383 121.725 177.383 110.099C177.383 98.4733 188.122 88.9387 201.465 88.9387Z" fill="#FEFEFE" stroke="black"/>
<path fill-rule="evenodd" clip-rule="evenodd" d="M240.347 144.282C250.561 144.282 258.844 151.015 258.844 159.309C258.844 167.604 250.561 174.337 240.347 174.337C230.133 174.337 221.849 167.604 221.849 159.309C221.849 151.015 230.133 144.282 240.347 144.282Z" stroke="black"/>
<path d="M240.347 144.782C250.387 144.782 258.344 151.383 258.344 159.309C258.344 167.236 250.387 173.837 240.347 173.837C230.307 173.837 222.349 167.236 222.349 159.309C222.349 151.383 230.307 144.782 240.347 144.782Z" fill="#FEFEFE" stroke="black"/>
<path d="M309.643 222.023C309.643 210.594 299.734 201.4 287.626 201.4C275.518 201.4 265.645 210.595 265.645 222.023C265.645 233.415 275.519 242.609 287.626 242.609C299.733 242.609 309.643 233.416 309.643 222.023Z" stroke="black"/>
<path d="M309.643 222.023C309.643 210.594 299.734 201.4 287.626 201.4C275.518 201.4 265.645 210.595 265.645 222.023C265.645 233.415 275.519 242.609 287.626 242.609C299.733 242.609 309.643 233.416 309.643 222.023Z" fill="#FEFEFE" stroke="black"/>
<path d="M162.776 81.2706H111.846C108.143 81.2706 105.142 84.8012 105.142 89.1563V202.644C105.142 206.999 108.143 210.529 111.846 210.529H162.776C166.479 210.529 169.48 206.999 169.48 202.644V89.1563C169.48 84.8012 166.479 81.2706 162.776 81.2706Z" stroke="black"/>
<path d="M166.532 94.959H109.424V197.511H166.532V94.959Z" fill="#F58634"/>
<path fill-rule="evenodd" clip-rule="evenodd" d="M47.7184 306.311H116.725C116.935 304.898 118.059 302.145 118.55 300.657C121.428 291.432 124.938 282.282 127.887 273.132C128.659 270.714 131.362 264.093 131.256 262.01C130.273 261.377 129.22 261.191 128.308 260.299C126.518 260.373 109.775 253.826 107.037 252.822C100.368 250.293 92.5761 247.094 86.0475 245.122C83.5204 244.044 83.4502 244.527 82.1866 246.722L56.7391 290.465C55.0543 293.404 48.1045 304.563 47.7184 306.311Z" fill="#F58634"/>
<path fill-rule="evenodd" clip-rule="evenodd" d="M257.827 279.195C257.335 280.571 244.278 292.139 242.418 293.887C239.996 296.119 227.956 306.72 226.974 308.469L283.836 308.394L271.621 292.251C270.568 291.284 266.215 285.369 265.022 283.435C264.215 282.133 262.916 280.162 262.074 279.009C260.073 276.219 260.003 278.227 257.827 279.195Z" fill="#F58634"/>
<path fill-rule="evenodd" clip-rule="evenodd" d="M135.328 105.523C125.64 107.011 116.971 116.57 118.831 129.106C120.305 139.149 129.501 148.336 141.084 146.402C151.158 144.728 159.126 134.908 157.476 122.596C156.177 112.553 146.841 103.775 135.328 105.523Z" fill="#FEFEFE"/>
<path fill-rule="evenodd" clip-rule="evenodd" d="M146.911 117.5C145.577 118.095 139.891 124.047 138.276 125.721C136.907 127.06 136.381 128.064 134.52 126.316C134.205 126.018 129.993 120.402 127.641 124.568C125.921 127.581 129.466 129.998 131.221 131.709C138.03 138.479 136.767 135.392 149.438 123.303C152.737 120.178 150.105 116.087 146.911 117.5Z" fill="black"/>
<path fill-rule="evenodd" clip-rule="evenodd" d="M145.121 184.492C146.7 182.855 147.543 181.516 149.789 180.958C147.613 179.359 148.455 180.028 146.946 177.945C146.806 178.391 146.806 179.135 146.806 179.21C146.244 180.884 147.332 179.693 145.893 180.549C144.77 179.954 144.875 179.954 144.875 176.941C144.875 176.718 144.84 175.044 144.84 175.007C145.261 171.919 144.384 173.965 145.893 173.184C147.016 173.891 146.63 173.891 146.946 175.825C148.139 174.374 147.859 173.184 150.21 173.184C149.965 175.044 148.561 175.788 148.631 176.904C148.666 177.833 150.035 179.173 150.421 180.66C152.071 180.698 153.334 180.735 154.703 181.442C156.107 182.185 156.563 183.153 157.792 183.934C159.968 183.004 159.512 180.474 159.512 178.057C159.512 176.383 159.652 172.849 159.301 171.361C158.81 169.353 157.406 169.018 155.124 168.981H123.218C117.322 168.981 115.812 168.2 115.847 175.044C115.883 179.656 114.619 184.529 119.673 184.678L145.121 184.492Z" fill="#EE2B5A"/>
<path fill-rule="evenodd" clip-rule="evenodd" d="M124.868 180.363C126.799 180.512 128.343 180.66 129.958 179.954L130.063 173.816C128.589 173.221 126.658 173.221 124.833 173.37L124.868 180.363Z" fill="#FCEDE4"/>
<path d="M155.791 164.926H117.989C116.05 164.926 114.479 166.941 114.479 169.427V180.4C114.479 182.886 116.05 184.901 117.989 184.901H155.791C157.73 184.901 159.301 182.886 159.301 180.4V169.427C159.301 166.941 157.73 164.926 155.791 164.926Z" fill="#FEFEFE" stroke="#F58634" stroke-width="0.00694465"/>
<path fill-rule="evenodd" clip-rule="evenodd" d="M138.171 173.63C138.171 177.833 142.769 179.731 145.577 177.015C146.139 176.457 145.998 176.346 145.998 174.783V173.109H142.418V174.672H143.682L143.717 175.378C142.278 176.383 140.242 175.118 140.733 173.035C140.909 172.254 141.54 171.622 142.278 171.547C143.787 171.473 144.138 172.217 144.454 172.44L145.823 170.692C144.735 168.199 138.171 168.088 138.171 173.63Z" fill="#19828E"/>
<path fill-rule="evenodd" clip-rule="evenodd" d="M122.587 174.783C122.376 175.044 122.095 175.267 121.674 175.49C118.761 176.829 117.743 172.291 120.13 171.622C121.498 171.212 122.271 172.328 122.551 172.44L123.991 170.692C123.64 170.022 122.551 169.353 121.709 169.129C118.761 168.311 115.461 171.026 116.479 175.006C116.865 176.569 117.988 177.573 119.252 178.019C119.814 178.205 120.34 178.205 120.972 178.205C122.587 178.168 124.096 176.903 123.955 176.42L122.587 174.783Z" fill="#19828E"/>
<path fill-rule="evenodd" clip-rule="evenodd" d="M127.501 178.168C129.045 178.168 130.554 176.941 130.589 174.969C130.66 170.692 124.412 170.617 124.412 174.932C124.412 176.903 125.851 178.168 127.501 178.168Z" fill="#19828E"/>
<path fill-rule="evenodd" clip-rule="evenodd" d="M133.748 172.589V171.882H131.572L131.537 177.982H133.748C133.783 176.866 133.573 174.56 133.924 174.263C134.064 174.151 134.31 174.114 134.485 174.151C135.047 174.225 134.942 175.044 134.942 175.378V177.982H137.153C137.188 176.643 137.293 173.816 136.907 172.812C136.486 171.845 135.398 171.436 134.45 171.994C134.134 172.179 134.029 172.477 133.748 172.589Z" fill="#19828E"/>
<path fill-rule="evenodd" clip-rule="evenodd" d="M147.192 172.849C147.262 173.072 148.174 174.002 148.28 174.002C148.631 173.853 148.631 173.593 149.122 173.519C149.508 173.481 149.894 173.593 149.929 174.039C149.122 174.411 146.735 174.337 146.806 176.457C146.876 177.313 147.508 177.945 148.034 178.094C149.333 178.354 149.614 177.387 149.894 177.238L149.929 177.945H152.141V174.449C152.141 171.101 148.35 171.064 147.192 172.849Z" fill="#19828E"/>
<path fill-rule="evenodd" clip-rule="evenodd" d="M155.229 176.16C154.563 176.494 154.247 175.974 153.825 175.788L152.913 176.941C153.159 177.536 154.212 178.019 154.914 178.131C155.721 178.28 156.809 178.057 157.371 177.499C158.002 176.903 158.178 175.899 157.511 175.081C156.844 174.225 155.686 174.374 155.896 173.63C156.423 173.37 156.563 173.853 156.949 173.853L157.827 172.7C156.563 171.473 154.598 171.25 153.545 172.44C152.667 173.444 153.123 174.746 154.457 175.453C154.773 175.602 155.265 175.713 155.229 176.16Z" fill="#19828E"/>
<path fill-rule="evenodd" clip-rule="evenodd" d="M120.235 172.737C119.603 172.998 119.744 173.035 119.744 173.853C119.744 174.448 119.708 174.932 120.2 174.969C120.621 175.006 121.323 175.044 121.498 174.709C121.639 174.411 121.569 173.407 121.534 173.035C121.358 172.849 121.323 172.812 121.042 172.775C121.042 172.291 121.112 172.142 120.691 172.142C120.2 172.105 120.235 172.217 120.235 172.737Z" fill="#F58634"/>
<path fill-rule="evenodd" clip-rule="evenodd" d="M127.255 174.077C126.939 174.225 126.974 174.114 126.799 174.523C126.377 175.378 127.22 176.085 127.781 175.788C128.905 175.192 128.027 173.63 127.255 174.077Z" fill="#F5F6F6"/>
<path fill-rule="evenodd" clip-rule="evenodd" d="M149.368 175.267C149.122 175.564 148.21 175.49 148.315 176.122C148.525 177.09 149.684 176.457 149.368 175.267Z" fill="#FEFEFE"/>
<path d="M127.536 175.974C128.02 175.974 128.413 175.507 128.413 174.932C128.413 174.357 128.02 173.891 127.536 173.891C127.051 173.891 126.658 174.357 126.658 174.932C126.658 175.507 127.051 175.974 127.536 175.974Z" fill="#FEFEFE"/>
<path d="M144.304 85.4738H128.589C127.581 85.4738 126.763 86.1998 126.763 87.0954C126.763 87.991 127.581 88.717 128.589 88.717H144.304C145.312 88.717 146.129 87.991 146.129 87.0954C146.129 86.1998 145.312 85.4738 144.304 85.4738Z" fill="black"/>
<path d="M121.885 89.0447C122.931 89.0447 123.78 88.1953 123.78 87.1476C123.78 86.0999 122.931 85.2506 121.885 85.2506C120.838 85.2506 119.989 86.0999 119.989 87.1476C119.989 88.1953 120.838 89.0447 121.885 89.0447Z" fill="black"/>
<path d="M136.627 205.843C138.604 205.843 140.207 204.211 140.207 202.197C140.207 200.184 138.604 198.552 136.627 198.552C134.649 198.552 133.046 200.184 133.046 202.197C133.046 204.211 134.649 205.843 136.627 205.843Z" fill="black"/>
<path fill-rule="evenodd" clip-rule="evenodd" d="M155.791 180.66C157.265 181.404 157.441 181.925 159.02 183.264C159.266 184.603 165.654 196.841 166.883 197.473C167.62 195.39 167.234 189.699 167.234 186.947C167.093 186.203 162.425 183.041 162.109 178.28C161.688 172.105 166.707 172.626 167.655 169.65C167.62 168.46 162.565 166.488 162.109 160.983C161.547 154.66 166.742 155.069 167.62 152.391C167.62 151.721 162.39 148.522 162.074 143.724C161.688 137.363 166.707 137.81 167.62 135.094L169.761 134.685C172.077 135.429 173.025 134.239 175.307 136.471C176.289 137.475 178.044 140.413 178.36 141.529C180.045 147.778 175.412 148.746 172.358 151.572C172.99 152.279 178.255 154.809 178.606 160.239C178.957 165.447 175.201 166.228 172.323 168.869C172.815 169.464 180.15 173.295 178.36 180.14C177.693 182.595 176.009 183.153 174.78 185.459C172.148 190.406 169.691 193.456 169.691 197.92C169.726 204.206 170.428 203.871 174.675 210.976C175.201 211.868 175.623 212.538 176.219 213.654C176.781 214.621 177.027 215.811 177.974 216.295C177.167 213.393 174.289 210.864 173.657 207.256C172.92 203.016 175.061 199.631 178.15 198.366C186.89 194.758 188.961 206.289 192.155 209.897C192.821 208.484 189.592 205.805 188.785 202.197C186.89 194.014 195.489 189.29 200.965 194.088C203.071 195.948 204.053 200.523 205.808 201.416C205.844 193.568 211.214 190.889 215.987 192.638C219.603 194.014 222.235 200.412 224.411 204.169C229.536 213.059 233.537 221.056 237.363 231.248C238.767 235.674 246.805 262.196 248.279 264.539C250.245 267.701 257.3 274.88 259.652 279.083C259.195 280.348 247.051 291.098 245.296 292.734C243.049 294.817 233.678 304.674 232.8 306.348L225.429 304.637L227.606 306.348L116.725 306.311H47.7184L227.606 306.348C226.868 304.302 224.798 302.74 223.499 301.364C217.602 295.152 220.901 296.975 212.618 295.152C210.442 294.668 208.195 294.148 205.879 293.664C192.576 290.763 191.593 291.916 181.344 284.365C176.886 281.129 164.882 273.057 162.425 269.077C160.284 265.506 158.073 262.01 155.791 258.476C154.563 256.616 149.754 249.66 149.614 247.801C151.544 244.825 156.318 243.374 160.986 243.932C169.62 244.974 172.499 254.31 177.764 258.327C178.957 259.22 185.1 264.39 186.468 264.576C183.099 258.439 159.687 214.212 157.686 212.761C156.423 213.579 150.351 222.321 149.368 223.697C146.77 227.305 143.927 231.062 141.119 234.558C138.382 237.981 134.907 241.477 133.327 245.941C132.064 249.512 128.729 257.397 128.308 260.299C126.518 260.373 109.775 253.826 107.037 252.822C100.368 250.293 92.5761 247.094 86.0476 245.122C86.2231 242.37 90.8913 235.749 91.9794 232.699C92.8218 230.318 89.4171 220.386 88.7502 217.894C86.2582 208.446 82.3972 199.036 79.7296 189.699C77.7991 182.967 79.9402 180.549 82.327 175.49C84.2575 171.473 86.0827 167.604 88.1184 163.587C90.2244 159.384 92.0145 155.292 93.9801 151.424C95.2437 148.931 98.3676 141.567 104.054 146.067C105.107 147.072 104.651 150.791 104.651 152.763L105.002 173.965C105.423 186.128 102.404 194.349 105.072 206.735C106.3 210.381 107.494 210.343 111.881 210.529C124.201 210.046 141.365 209.525 154.878 209.041C155.229 206.401 154.317 206.177 154.141 205.954L149.508 197.771C148.49 196.097 147.121 193.791 146.033 191.819C142.278 185.012 149.227 177.238 155.791 180.66Z" stroke="black" stroke-width="0.111106"/>
<path d="M155.566 181.107L155.56 181.104C152.515 179.516 149.38 180.511 147.417 182.735C145.453 184.961 144.706 188.379 146.471 191.578C147.554 193.54 148.919 195.84 149.935 197.511L149.939 197.518L149.943 197.525L154.541 205.645C154.543 205.647 154.546 205.649 154.549 205.651C154.583 205.678 154.647 205.727 154.713 205.786C154.855 205.913 155.018 206.094 155.155 206.368C155.424 206.908 155.556 207.739 155.374 209.107L155.318 209.526L154.896 209.541C149.425 209.737 143.358 209.939 137.257 210.142C128.283 210.44 119.235 210.741 111.901 211.029L111.88 211.03L111.86 211.029C111.755 211.024 111.652 211.02 111.551 211.016C110.597 210.976 109.78 210.942 109.086 210.868C108.316 210.786 107.653 210.652 107.079 210.382C105.886 209.822 105.223 208.749 104.598 206.895L104.589 206.868L104.583 206.841C103.235 200.581 103.325 195.376 103.695 190.231C103.781 189.036 103.882 187.847 103.983 186.65C104.319 182.683 104.663 178.627 104.502 173.982L104.501 173.973H104.502L104.151 152.771L104.15 152.763H104.151C104.151 152.327 104.172 151.809 104.195 151.268C104.199 151.181 104.202 151.093 104.206 151.006C104.232 150.364 104.256 149.695 104.247 149.059C104.238 148.42 104.197 147.835 104.101 147.359C104.005 146.882 103.867 146.591 103.723 146.443C102.381 145.387 101.249 145.071 100.302 145.153C99.3424 145.236 98.481 145.736 97.7055 146.483C96.3254 147.813 95.345 149.796 94.6843 151.132C94.5921 151.318 94.5061 151.492 94.4261 151.65L94.4259 151.65C93.447 153.577 92.5112 155.56 91.5543 157.593L91.4628 157.787C90.536 159.756 89.588 161.77 88.5655 163.811L88.5645 163.813C86.9311 167.036 85.4341 170.162 83.9063 173.352C83.533 174.132 83.1579 174.915 82.7785 175.705C82.4257 176.452 82.0697 177.16 81.7358 177.823C81.5085 178.275 81.2914 178.706 81.0926 179.116C80.5908 180.15 80.1744 181.106 79.8901 182.104C79.3281 184.076 79.2655 186.267 80.2102 189.561L80.2103 189.562C81.4285 193.825 82.8967 198.106 84.374 202.412C84.5089 202.806 84.6439 203.199 84.7787 203.593C86.3886 208.293 87.9823 213.023 89.2335 217.766M155.566 181.107L93.9801 151.424C92.9663 153.419 91.9991 155.474 91.0112 157.572C90.0839 159.543 89.1382 161.552 88.1185 163.587C86.4824 166.815 84.9824 169.948 83.4544 173.138C83.081 173.918 82.706 174.701 82.327 175.49C81.9739 176.238 81.6262 176.929 81.2962 177.584C79.3958 181.358 78.0847 183.962 79.7296 189.699C80.9515 193.976 82.4239 198.268 83.9004 202.573C85.6472 207.665 87.3997 212.774 88.7502 217.894C88.8804 218.381 89.1147 219.15 89.4014 220.091C90.5841 223.975 92.6575 230.783 91.9794 232.699C91.5399 233.931 90.5162 235.745 89.4404 237.652C87.853 240.467 86.1522 243.482 86.0476 245.122M155.566 181.107C156.258 181.456 156.633 181.745 157.028 182.107C157.149 182.218 157.278 182.342 157.421 182.48C157.721 182.77 158.086 183.12 158.575 183.542C158.645 183.773 158.769 184.085 158.919 184.432C159.124 184.905 159.402 185.502 159.73 186.179C160.386 187.531 161.249 189.213 162.143 190.871C163.036 192.528 163.962 194.168 164.745 195.437C165.136 196.071 165.495 196.619 165.799 197.032C165.951 197.239 166.095 197.419 166.226 197.562C166.347 197.694 166.494 197.835 166.654 197.918L167.163 198.18L167.354 197.64C167.561 197.055 167.679 196.254 167.747 195.375C167.816 194.487 167.837 193.479 167.835 192.46C167.832 191.44 167.807 190.4 167.782 189.447L167.777 189.236C167.754 188.363 167.734 187.576 167.734 186.947V186.9L167.725 186.854C167.698 186.713 167.631 186.592 167.577 186.508C167.518 186.417 167.445 186.324 167.367 186.232C167.213 186.05 167.005 185.835 166.777 185.6C166.742 185.564 166.707 185.528 166.671 185.491C166.223 185.031 165.675 184.468 165.122 183.801C163.924 182.354 162.756 180.473 162.608 178.247L162.608 178.246C162.507 176.771 162.734 175.737 163.113 174.966C163.493 174.193 164.047 173.642 164.673 173.162C164.988 172.92 165.316 172.7 165.651 172.475L165.653 172.474C165.983 172.253 166.322 172.025 166.637 171.78C167.272 171.284 167.851 170.682 168.131 169.802L168.157 169.721L168.155 169.635C168.145 169.32 167.977 169.052 167.816 168.85C167.646 168.637 167.418 168.418 167.173 168.197C167.021 168.06 166.859 167.919 166.69 167.771C166.291 167.424 165.851 167.04 165.394 166.582C164.114 165.297 162.822 163.532 162.607 160.942L162.607 160.939C162.473 159.427 162.686 158.359 163.062 157.563C163.438 156.767 163.998 156.199 164.628 155.717C164.946 155.475 165.277 155.257 165.614 155.039C165.654 155.013 165.694 154.987 165.735 154.961C166.028 154.772 166.327 154.579 166.603 154.379C167.233 153.921 167.826 153.367 168.095 152.546L168.12 152.471V152.391C168.12 152.204 168.036 152.053 167.985 151.971C167.925 151.875 167.847 151.779 167.767 151.69C167.608 151.511 167.387 151.298 167.141 151.066C167.085 151.012 167.026 150.957 166.966 150.9C166.494 150.455 165.919 149.912 165.335 149.27C164.013 147.813 162.72 145.92 162.573 143.692M155.566 181.107L162.573 143.692M89.2335 217.766C89.2335 217.766 89.2336 217.766 89.2337 217.767L88.7504 217.894L89.2333 217.765C89.2333 217.765 89.2334 217.766 89.2335 217.766ZM89.2335 217.766C89.3612 218.243 89.5918 219 89.8776 219.939C89.9587 220.205 90.0442 220.486 90.1331 220.779C90.5333 222.099 90.997 223.655 91.4138 225.209C91.83 226.761 92.2025 228.322 92.4176 229.652C92.5252 230.316 92.5951 230.933 92.6097 231.468C92.624 231.992 92.5869 232.481 92.4508 232.865L92.4504 232.867C92.164 233.669 91.6511 234.685 91.0576 235.778C90.6909 236.453 90.2844 237.174 89.8725 237.904C89.6171 238.357 89.3595 238.814 89.1082 239.265C88.4466 240.454 87.8211 241.62 87.3507 242.656C86.969 243.496 86.7077 244.213 86.599 244.768M86.599 244.768C86.4628 244.726 86.3272 244.684 86.1921 244.644L86.0476 245.122M86.599 244.768C91.4781 246.266 97.0249 248.417 102.251 250.444C103.95 251.102 105.615 251.748 107.212 252.354M86.599 244.768C86.5717 244.907 86.5541 245.036 86.5465 245.154L86.0476 245.122M86.0476 245.122C91.0035 246.619 96.6876 248.823 102.056 250.904C103.759 251.565 105.431 252.213 107.037 252.822C107.541 253.007 108.517 253.379 109.787 253.862C115.425 256.01 126.847 260.359 128.308 260.299M162.573 143.692C162.481 142.169 162.714 141.093 163.1 140.291C163.486 139.488 164.044 138.92 164.666 138.437C164.98 138.195 165.306 137.977 165.637 137.759C165.673 137.735 165.709 137.711 165.746 137.687C166.038 137.496 166.335 137.3 166.612 137.095C167.161 136.688 167.679 136.207 167.984 135.534L169.732 135.2C170.584 135.454 171.309 135.474 171.9 135.49C172.119 135.496 172.319 135.501 172.501 135.518C172.864 135.551 173.208 135.624 173.587 135.805C173.97 135.989 174.412 136.296 174.953 136.824C175.401 137.283 176.059 138.224 176.655 139.216C177.255 140.214 177.739 141.174 177.878 141.662C178.283 143.165 178.297 144.308 178.077 145.22C177.857 146.128 177.395 146.847 176.777 147.487C176.15 148.135 175.376 148.691 174.535 149.28C174.48 149.318 174.424 149.357 174.369 149.396C173.588 149.941 172.76 150.519 172.019 151.206L171.658 151.539L171.985 151.906C172.108 152.042 172.307 152.191 172.502 152.331C172.607 152.407 172.726 152.49 172.852 152.579C172.979 152.668 173.116 152.764 173.26 152.868C173.84 153.283 174.545 153.818 175.239 154.493C176.627 155.843 177.942 157.724 178.107 160.272L178.107 160.273C178.191 161.513 178.028 162.459 177.715 163.223C177.401 163.987 176.924 164.599 176.334 165.152C175.74 165.708 175.047 166.193 174.294 166.721L174.282 166.729C173.533 167.253 172.733 167.815 171.985 168.501L171.635 168.821L171.938 169.187C172.008 169.272 172.106 169.352 172.185 169.413C172.273 169.482 172.384 169.562 172.506 169.65C172.551 169.682 172.599 169.717 172.649 169.752C172.87 169.91 173.132 170.097 173.424 170.318C174.139 170.857 175.018 171.583 175.823 172.492C177.431 174.308 178.714 176.81 177.877 180.011C177.573 181.127 177.045 181.81 176.408 182.521C176.317 182.623 176.223 182.727 176.126 182.832C175.549 183.464 174.896 184.178 174.339 185.224L174.339 185.224C173.769 186.295 173.207 187.276 172.674 188.209C172.595 188.346 172.517 188.482 172.44 188.617C171.84 189.668 171.278 190.666 170.799 191.652C169.835 193.631 169.191 195.586 169.191 197.92L169.191 197.922C169.208 201.078 169.391 202.654 170.147 204.345C170.518 205.175 171.021 206.021 171.685 207.087C171.848 207.348 172.021 207.624 172.204 207.916C172.773 208.822 173.445 209.893 174.245 211.23C174.37 211.444 174.49 211.643 174.606 211.838C174.981 212.467 175.328 213.047 175.778 213.89L175.782 213.897L175.787 213.905C175.914 214.124 176.026 214.361 176.142 214.615C176.16 214.653 176.178 214.693 176.196 214.733C176.294 214.946 176.397 215.173 176.509 215.387C176.775 215.897 177.134 216.427 177.747 216.74L178.761 217.258L178.456 216.161C178.079 214.806 177.278 213.532 176.492 212.283C176.385 212.114 176.279 211.945 176.174 211.776C175.277 210.334 174.447 208.871 174.15 207.17C173.451 203.153 175.475 200.001 178.339 198.829L178.341 198.828C180.423 197.968 182.05 198.029 183.379 198.598C184.729 199.175 185.841 200.304 186.822 201.711C187.75 203.043 188.529 204.576 189.276 206.043C189.318 206.127 189.36 206.21 189.402 206.293C190.173 207.807 190.931 209.269 191.78 210.228L192.283 210.796L192.607 210.11C192.871 209.551 192.715 208.94 192.481 208.405C192.241 207.856 191.851 207.24 191.445 206.602L191.43 206.579C190.601 205.275 189.652 203.783 189.273 202.088L189.272 202.084C187.479 194.345 195.547 190.006 200.635 194.464C201.104 194.879 201.528 195.462 201.933 196.147C202.318 196.799 202.669 197.516 203.018 198.231L203.069 198.335C203.431 199.074 203.796 199.813 204.186 200.425C204.569 201.026 205.019 201.576 205.582 201.862L206.305 202.23L206.308 201.418C206.326 197.608 207.633 195.145 209.418 193.831C211.206 192.513 213.559 192.282 215.812 193.106C216.617 193.413 217.397 194.012 218.156 194.831C218.914 195.65 219.631 196.666 220.314 197.773C220.995 198.879 221.635 200.061 222.244 201.21C222.352 201.414 222.459 201.617 222.566 201.819C223.055 202.746 223.526 203.638 223.978 204.418C229.09 213.287 233.078 221.256 236.891 231.411C237.141 232.203 237.601 233.687 238.195 235.61C238.435 236.386 238.697 237.233 238.976 238.135C239.95 241.281 241.133 245.086 242.318 248.826C243.503 252.565 244.691 256.242 245.676 259.132C246.168 260.577 246.611 261.829 246.977 262.795C247.336 263.739 247.639 264.459 247.855 264.803C248.731 266.213 250.578 268.381 252.545 270.692C252.841 271.04 253.141 271.392 253.439 271.744C255.66 274.361 257.883 277.052 259.072 279.077C259.062 279.091 259.051 279.106 259.038 279.122C258.936 279.255 258.791 279.425 258.605 279.63C258.236 280.038 257.725 280.56 257.112 281.163C255.888 282.368 254.277 283.877 252.622 285.401C250.639 287.228 248.581 289.085 247.066 290.452C246.065 291.356 245.302 292.045 244.955 292.369M162.573 143.692L232.8 306.348M244.955 292.369C244.955 292.368 244.956 292.368 244.956 292.368L245.296 292.734L244.955 292.369ZM244.955 292.369C243.816 293.425 240.901 296.421 238.169 299.354C236.8 300.823 235.472 302.282 234.43 303.48C233.909 304.078 233.457 304.615 233.106 305.057C232.892 305.326 232.706 305.571 232.564 305.78M232.564 305.78L227.188 304.532M232.564 305.78C232.478 305.906 232.408 306.019 232.357 306.116L232.8 306.348M232.564 305.78L232.913 305.861L232.8 306.348M227.188 304.532C226.864 304.078 226.498 303.656 226.126 303.262C225.73 302.842 225.318 302.446 224.931 302.075L224.884 302.03C224.51 301.672 224.164 301.34 223.862 301.021L223.861 301.02C222.675 299.77 221.865 298.849 221.253 298.154C221.108 297.989 220.975 297.838 220.85 297.697C220.207 296.973 219.758 296.5 219.204 296.179C218.648 295.857 218.02 295.708 217.078 295.527C216.852 295.483 216.605 295.438 216.332 295.387C215.45 295.224 214.301 295.01 212.725 294.664M227.188 304.532L226.423 304.355C225.845 303.642 225.167 302.993 224.534 302.387C224.164 302.033 223.809 301.693 223.499 301.364C220.537 298.244 219.895 297.151 218.941 296.605C217.994 296.063 216.741 296.059 212.618 295.152M227.188 304.532C227.328 304.728 227.46 304.929 227.582 305.137L232.8 306.348M212.725 294.664C212.102 294.525 211.472 294.384 210.836 294.24C209.256 293.885 207.637 293.52 205.983 293.175M212.725 294.664C212.726 294.664 212.726 294.664 212.726 294.664L212.618 295.152M212.725 294.664L212.618 295.152M205.983 293.175C203.391 292.61 201.263 292.198 199.449 291.846C198.932 291.746 198.441 291.651 197.971 291.558C195.849 291.141 194.183 290.781 192.618 290.282C189.507 289.289 186.752 287.728 181.64 283.962L181.638 283.96C180.918 283.438 180.01 282.795 178.98 282.066C176.794 280.519 174.062 278.585 171.436 276.601C169.507 275.145 167.649 273.67 166.123 272.316C164.586 270.953 163.425 269.744 162.852 268.817M205.983 293.175C205.984 293.175 205.985 293.175 205.985 293.176L205.879 293.664M205.983 293.175C205.983 293.175 205.982 293.175 205.981 293.175L205.879 293.664M162.852 268.817C160.707 265.24 158.494 261.74 156.211 258.205L156.208 258.2C156.065 257.983 155.874 257.698 155.648 257.362C154.9 256.246 153.771 254.562 152.719 252.874C152.035 251.776 151.39 250.687 150.909 249.761C150.668 249.298 150.472 248.883 150.334 248.533C150.232 248.275 150.168 248.071 150.136 247.92M162.852 268.817C162.851 268.816 162.851 268.815 162.85 268.814L162.426 269.077L162.854 268.82C162.853 268.819 162.853 268.818 162.852 268.817ZM150.136 247.92C151.036 246.631 152.554 245.634 154.429 245.016C156.373 244.376 158.659 244.158 160.926 244.428M150.136 247.92C150.101 247.97 150.066 248.021 150.033 248.073L149.614 247.8M150.136 247.92C150.123 247.859 150.115 247.807 150.112 247.763L149.614 247.8M160.926 244.428C165.051 244.926 167.823 247.399 170.253 250.333C170.998 251.232 171.693 252.151 172.385 253.067C172.834 253.661 173.282 254.253 173.742 254.839C174.893 256.303 176.092 257.681 177.46 258.725L177.464 258.728C177.707 258.91 178.168 259.279 178.767 259.759C178.88 259.85 178.999 259.946 179.122 260.044C179.887 260.658 180.813 261.396 181.745 262.113C182.676 262.829 183.62 263.529 184.421 264.063C184.821 264.33 185.193 264.56 185.515 264.732C185.82 264.895 186.134 265.035 186.401 265.072L187.384 265.205L186.907 264.336C186.227 263.098 184.735 260.316 182.769 256.65C179.856 251.219 175.902 243.846 172.003 236.672C168.741 230.669 165.52 224.81 162.988 220.359C161.723 218.134 160.628 216.258 159.785 214.89C159.364 214.207 159.003 213.645 158.713 213.229C158.568 213.021 158.437 212.844 158.323 212.704C158.217 212.574 158.099 212.443 157.98 212.356L157.702 212.155L157.415 212.341C157.194 212.484 156.922 212.758 156.635 213.075C156.337 213.405 155.985 213.828 155.601 214.31C154.832 215.274 153.919 216.493 153.018 217.725C151.641 219.608 150.281 221.537 149.5 222.644C149.26 222.984 149.075 223.246 148.961 223.406M160.926 244.428L160.986 243.932L160.927 244.429C160.926 244.428 160.926 244.428 160.926 244.428ZM148.961 223.406C146.369 227.007 143.531 230.757 140.729 234.245L140.729 234.246C140.2 234.908 139.63 235.587 139.047 236.281C138.158 237.34 137.24 238.435 136.39 239.557C134.967 241.437 133.67 243.474 132.856 245.774C132.491 246.805 131.956 248.19 131.365 249.716C130.936 250.828 130.477 252.015 130.034 253.195C129.097 255.687 128.222 258.172 127.898 259.747M148.961 223.406C148.961 223.406 148.961 223.406 148.961 223.406L149.367 223.697L148.962 223.405C148.962 223.405 148.961 223.406 148.961 223.406ZM127.898 259.747C127.693 259.706 127.434 259.643 127.124 259.558C126.502 259.387 125.7 259.137 124.772 258.828C122.915 258.212 120.575 257.372 118.201 256.496C115.828 255.62 113.424 254.711 111.442 253.957C110.919 253.758 110.426 253.57 109.97 253.397C108.7 252.913 107.719 252.54 107.212 252.354M127.898 259.747C127.9 259.747 127.901 259.747 127.902 259.748C128.118 259.791 128.239 259.801 128.287 259.799L128.308 260.299M127.898 259.747C127.863 259.918 127.835 260.078 127.813 260.227L128.308 260.299M107.212 252.354C107.213 252.354 107.214 252.354 107.215 252.355L107.037 252.822L107.209 252.353C107.21 252.353 107.211 252.353 107.212 252.354ZM128.308 260.299C128.607 258.239 130.375 253.666 131.827 249.909C132.42 248.374 132.961 246.976 133.327 245.941C134.592 242.368 137.071 239.414 139.414 236.622C139.998 235.927 140.573 235.241 141.119 234.558C143.927 231.062 146.77 227.305 149.368 223.697C149.484 223.535 149.67 223.27 149.912 222.928C151.716 220.369 156.572 213.483 157.686 212.761C159.284 213.919 174.532 242.35 182.328 256.886C183.999 260.001 185.328 262.478 186.106 263.912C186.332 264.025 186.471 264.072 186.536 264.081L186.468 264.576L186.03 264.817C185.946 264.663 185.849 264.486 185.74 264.285C184.134 263.424 180.969 260.885 179.082 259.371C178.484 258.892 178.015 258.515 177.764 258.327C175.934 256.931 174.392 254.892 172.796 252.782C169.802 248.822 166.619 244.612 160.986 243.932C156.318 243.374 151.544 244.825 149.614 247.8M149.614 247.8C149.738 249.446 153.517 255.082 155.237 257.646C155.461 257.98 155.65 258.262 155.791 258.476C158.073 262.01 160.284 265.506 162.425 269.077C164.49 272.422 173.298 278.657 178.703 282.483C179.729 283.209 180.633 283.849 181.344 284.365C189.6 290.448 191.843 290.882 199.357 292.338C201.171 292.689 203.292 293.1 205.879 293.664M205.879 293.664C207.529 294.009 209.144 294.372 210.723 294.727C211.36 294.871 211.992 295.013 212.618 295.152M178.606 160.239C178.32 155.807 174.76 153.307 173.117 152.154C172.98 152.057 172.856 151.971 172.749 151.893C172.732 151.908 172.715 151.924 172.698 151.939L172.374 151.589C172.368 151.583 172.363 151.578 172.358 151.572C172.453 151.485 172.549 151.399 172.647 151.314L172.731 151.239C172.732 151.24 172.732 151.24 172.733 151.241C173.347 150.719 174.009 150.257 174.661 149.801C177.235 148.003 179.651 146.316 178.36 141.529C178.044 140.413 176.289 137.475 175.307 136.471C173.844 135.04 172.93 135.015 171.852 134.986C171.248 134.97 170.593 134.952 169.761 134.685L167.62 135.094C167.29 136.075 166.424 136.644 165.471 137.269C163.786 138.376 161.827 139.661 162.074 143.724L178.606 160.239ZM178.606 160.239C178.868 164.129 176.839 165.549 174.596 167.119C173.836 167.651 173.052 168.201 172.323 168.869C172.33 168.878 172.339 168.887 172.349 168.897M178.606 160.239L172.349 168.897M172.349 168.897L172.661 169.237C172.68 169.22 172.699 169.203 172.717 169.186C172.784 169.234 172.858 169.287 172.938 169.344C174.783 170.662 179.886 174.307 178.36 180.14C177.978 181.545 177.263 182.329 176.49 183.175C175.914 183.807 175.305 184.473 174.78 185.459L172.349 168.897ZM176.656 213.41C176.196 212.55 175.835 211.947 175.459 211.316C175.344 211.123 175.227 210.928 175.106 210.722L175.104 210.719C174.832 210.263 174.574 209.838 174.329 209.439C174.03 208.752 173.792 208.028 173.657 207.256C172.92 203.016 175.061 199.631 178.15 198.366C184.583 195.71 187.403 201.257 189.717 205.808C190.408 207.168 191.055 208.44 191.739 209.377C191.754 209.514 191.736 209.612 191.702 209.684L192.155 209.897L192.529 209.566C192.423 209.446 192.318 209.316 192.213 209.177C192.085 208.541 191.582 207.75 190.991 206.82C190.172 205.532 189.183 203.978 188.785 202.197C186.89 194.014 195.489 189.29 200.965 194.088C201.992 194.996 202.752 196.549 203.465 198.006C204.07 199.244 204.642 200.411 205.314 201.054L176.656 213.41ZM176.656 213.41C176.78 213.625 176.888 213.846 176.987 214.058M176.656 213.41L176.987 214.058M176.987 214.058C177.223 214.472 177.438 214.886 177.619 215.304M176.987 214.058L177.619 215.304M177.619 215.304C177.788 215.551 177.972 215.732 178.201 215.849L177.974 216.295L177.619 215.304ZM226.581 305.418C226.632 305.498 226.682 305.578 226.729 305.659L226.356 305.365L226.581 305.418ZM169.691 197.92C169.719 203.017 170.186 203.761 172.626 207.648C172.998 208.241 173.416 208.906 173.885 209.671C174.092 210.145 174.325 210.599 174.57 211.037L169.691 197.92ZM205.821 200.833C206.114 193.436 211.334 190.933 215.987 192.638C218.861 193.732 221.114 197.998 223.01 201.589C223.499 202.516 223.965 203.398 224.411 204.169C229.536 213.059 233.537 221.056 237.363 231.248L205.821 200.833Z" fill="#FEFEFE" stroke="black"/>
<path d="M184.202 107.03V107.613H181.937V107.03H184.202ZM182.119 105.249V109.514H181.384V105.249H182.119ZM184.767 105.249V109.514H184.035V105.249H184.767ZM189.045 107.264V107.499C189.045 107.821 189.003 108.11 188.919 108.366C188.835 108.622 188.715 108.839 188.558 109.019C188.404 109.199 188.219 109.337 188.002 109.432C187.785 109.526 187.545 109.573 187.281 109.573C187.019 109.573 186.78 109.526 186.563 109.432C186.348 109.337 186.162 109.199 186.004 109.019C185.846 108.839 185.722 108.622 185.635 108.366C185.549 108.11 185.506 107.821 185.506 107.499V107.264C185.506 106.942 185.549 106.654 185.635 106.4C185.721 106.144 185.842 105.926 185.998 105.747C186.156 105.565 186.343 105.427 186.557 105.334C186.774 105.238 187.013 105.19 187.275 105.19C187.539 105.19 187.779 105.238 187.996 105.334C188.213 105.427 188.399 105.565 188.555 105.747C188.712 105.926 188.832 106.144 188.916 106.4C189.002 106.654 189.045 106.942 189.045 107.264ZM188.309 107.499V107.258C188.309 107.02 188.286 106.81 188.239 106.629C188.194 106.445 188.127 106.292 188.037 106.169C187.949 106.044 187.841 105.95 187.712 105.887C187.583 105.823 187.437 105.791 187.275 105.791C187.113 105.791 186.969 105.823 186.842 105.887C186.715 105.95 186.606 106.044 186.516 106.169C186.429 106.292 186.361 106.445 186.314 106.629C186.267 106.81 186.244 107.02 186.244 107.258V107.499C186.244 107.737 186.267 107.948 186.314 108.131C186.361 108.315 186.43 108.47 186.519 108.597C186.611 108.722 186.721 108.817 186.847 108.881C186.974 108.944 187.119 108.975 187.281 108.975C187.445 108.975 187.591 108.944 187.718 108.881C187.845 108.817 187.952 108.722 188.04 108.597C188.128 108.47 188.194 108.315 188.239 108.131C188.286 107.948 188.309 107.737 188.309 107.499ZM192.174 105.249H192.906V108.099C192.906 108.423 192.836 108.695 192.695 108.914C192.555 109.132 192.363 109.297 192.121 109.409C191.881 109.518 191.612 109.573 191.315 109.573C191.009 109.573 190.735 109.518 190.495 109.409C190.255 109.297 190.065 109.132 189.927 108.914C189.79 108.695 189.721 108.423 189.721 108.099V105.249H190.454V108.099C190.454 108.304 190.489 108.473 190.559 108.606C190.63 108.737 190.729 108.834 190.858 108.896C190.987 108.959 191.139 108.99 191.315 108.99C191.491 108.99 191.642 108.959 191.769 108.896C191.898 108.834 191.998 108.737 192.068 108.606C192.138 108.473 192.174 108.304 192.174 108.099V105.249ZM195.95 108.416C195.95 108.328 195.936 108.25 195.909 108.181C195.884 108.113 195.838 108.05 195.771 107.994C195.705 107.937 195.611 107.882 195.49 107.83C195.371 107.775 195.219 107.719 195.033 107.663C194.83 107.6 194.642 107.531 194.471 107.455C194.301 107.377 194.152 107.287 194.025 107.185C193.898 107.082 193.8 106.964 193.729 106.831C193.659 106.696 193.624 106.541 193.624 106.365C193.624 106.191 193.66 106.033 193.732 105.89C193.806 105.748 193.911 105.625 194.046 105.521C194.182 105.416 194.344 105.335 194.529 105.278C194.715 105.219 194.92 105.19 195.144 105.19C195.461 105.19 195.733 105.249 195.962 105.366C196.192 105.483 196.369 105.64 196.492 105.838C196.617 106.035 196.68 106.253 196.68 106.491H195.95C195.95 106.35 195.92 106.226 195.859 106.119C195.801 106.009 195.711 105.923 195.59 105.861C195.471 105.798 195.319 105.767 195.136 105.767C194.962 105.767 194.817 105.794 194.702 105.846C194.587 105.899 194.501 105.97 194.444 106.06C194.388 106.15 194.359 106.252 194.359 106.365C194.359 106.445 194.378 106.518 194.415 106.585C194.452 106.649 194.509 106.71 194.585 106.766C194.661 106.821 194.757 106.873 194.872 106.922C194.987 106.97 195.123 107.017 195.279 107.062C195.515 107.132 195.721 107.211 195.897 107.297C196.073 107.38 196.22 107.476 196.337 107.584C196.454 107.691 196.542 107.813 196.6 107.95C196.659 108.085 196.688 108.238 196.688 108.41C196.688 108.589 196.652 108.752 196.58 108.896C196.508 109.039 196.404 109.161 196.269 109.262C196.137 109.362 195.976 109.439 195.789 109.494C195.603 109.547 195.396 109.573 195.168 109.573C194.963 109.573 194.761 109.546 194.561 109.491C194.364 109.436 194.184 109.353 194.022 109.242C193.86 109.129 193.731 108.988 193.636 108.82C193.54 108.65 193.492 108.452 193.492 108.225H194.227C194.227 108.364 194.251 108.482 194.298 108.58C194.346 108.677 194.414 108.757 194.5 108.82C194.586 108.88 194.685 108.925 194.799 108.955C194.914 108.984 195.037 108.999 195.168 108.999C195.34 108.999 195.483 108.974 195.598 108.925C195.716 108.877 195.804 108.808 195.862 108.72C195.921 108.632 195.95 108.531 195.95 108.416ZM200.131 108.931V109.514H197.866V108.931H200.131ZM198.074 105.249V109.514H197.339V105.249H198.074ZM199.835 107.03V107.604H197.866V107.03H199.835ZM200.116 105.249V105.835H197.866V105.249H200.116ZM205.044 107.03V107.613H202.779V107.03H205.044ZM202.961 105.249V109.514H202.225V105.249H202.961ZM205.609 105.249V109.514H204.877V105.249H205.609ZM209.887 107.264V107.499C209.887 107.821 209.845 108.11 209.761 108.366C209.677 108.622 209.556 108.839 209.4 109.019C209.246 109.199 209.06 109.337 208.844 109.432C208.627 109.526 208.387 109.573 208.123 109.573C207.861 109.573 207.622 109.526 207.405 109.432C207.19 109.337 207.004 109.199 206.846 109.019C206.687 108.839 206.564 108.622 206.476 108.366C206.39 108.11 206.347 107.821 206.347 107.499V107.264C206.347 106.942 206.39 106.654 206.476 106.4C206.562 106.144 206.683 105.926 206.84 105.747C206.998 105.565 207.184 105.427 207.399 105.334C207.616 105.238 207.855 105.19 208.117 105.19C208.381 105.19 208.621 105.238 208.838 105.334C209.055 105.427 209.241 105.565 209.397 105.747C209.554 105.926 209.674 106.144 209.758 106.4C209.844 106.654 209.887 106.942 209.887 107.264ZM209.151 107.499V107.258C209.151 107.02 209.128 106.81 209.081 106.629C209.036 106.445 208.969 106.292 208.879 106.169C208.791 106.044 208.682 105.95 208.554 105.887C208.425 105.823 208.279 105.791 208.117 105.791C207.955 105.791 207.81 105.823 207.683 105.887C207.556 105.95 207.448 106.044 207.358 106.169C207.27 106.292 207.203 106.445 207.156 106.629C207.109 106.81 207.086 107.02 207.086 107.258V107.499C207.086 107.737 207.109 107.948 207.156 108.131C207.203 108.315 207.271 108.47 207.361 108.597C207.453 108.722 207.562 108.817 207.689 108.881C207.816 108.944 207.961 108.975 208.123 108.975C208.287 108.975 208.432 108.944 208.559 108.881C208.686 108.817 208.794 108.722 208.882 108.597C208.97 108.47 209.036 108.315 209.081 108.131C209.128 107.948 209.151 107.737 209.151 107.499ZM213.294 108.931V109.514H211.152V108.931H213.294ZM211.357 105.249V109.514H210.622V105.249H211.357ZM215.101 109.514H214.19L214.196 108.931H215.101C215.365 108.931 215.586 108.874 215.763 108.758C215.943 108.643 216.078 108.478 216.168 108.263C216.26 108.048 216.305 107.793 216.305 107.496V107.264C216.305 107.034 216.279 106.83 216.226 106.652C216.176 106.474 216.099 106.325 215.998 106.204C215.898 106.083 215.775 105.991 215.629 105.928C215.484 105.866 215.317 105.835 215.128 105.835H214.173V105.249H215.128C215.411 105.249 215.67 105.297 215.904 105.392C216.138 105.486 216.341 105.622 216.511 105.799C216.682 105.977 216.814 106.19 216.906 106.438C216.998 106.686 217.044 106.964 217.044 107.27V107.496C217.044 107.802 216.998 108.08 216.906 108.328C216.814 108.576 216.682 108.789 216.511 108.966C216.339 109.142 216.134 109.278 215.895 109.374C215.659 109.467 215.394 109.514 215.101 109.514ZM214.597 105.249V109.514H213.862V105.249H214.597ZM219.566 105.249L217.905 109.88H217.351L219.015 105.249H219.566ZM182.623 116.514H181.712L181.718 115.931H182.623C182.887 115.931 183.107 115.874 183.285 115.758C183.465 115.643 183.599 115.478 183.689 115.263C183.781 115.048 183.827 114.793 183.827 114.496V114.264C183.827 114.034 183.801 113.83 183.748 113.652C183.697 113.474 183.621 113.325 183.519 113.204C183.42 113.083 183.297 112.991 183.15 112.928C183.006 112.866 182.839 112.835 182.649 112.835H181.694V112.249H182.649C182.932 112.249 183.191 112.297 183.426 112.392C183.66 112.486 183.862 112.622 184.032 112.799C184.204 112.977 184.336 113.19 184.428 113.438C184.519 113.686 184.565 113.964 184.565 114.27V114.496C184.565 114.802 184.519 115.08 184.428 115.328C184.336 115.576 184.204 115.789 184.032 115.966C183.86 116.142 183.655 116.278 183.417 116.374C183.18 116.467 182.916 116.514 182.623 116.514ZM182.119 112.249V116.514H181.384V112.249H182.119ZM188.705 114.264V114.499C188.705 114.821 188.663 115.11 188.579 115.366C188.495 115.622 188.375 115.839 188.219 116.019C188.064 116.199 187.879 116.337 187.662 116.432C187.445 116.526 187.205 116.573 186.941 116.573C186.68 116.573 186.44 116.526 186.223 116.432C186.009 116.337 185.822 116.199 185.664 116.019C185.506 115.839 185.383 115.622 185.295 115.366C185.209 115.11 185.166 114.821 185.166 114.499V114.264C185.166 113.942 185.209 113.654 185.295 113.4C185.381 113.144 185.502 112.926 185.658 112.747C185.816 112.565 186.003 112.427 186.218 112.334C186.434 112.238 186.674 112.19 186.935 112.19C187.199 112.19 187.439 112.238 187.656 112.334C187.873 112.427 188.059 112.565 188.216 112.747C188.372 112.926 188.492 113.144 188.576 113.4C188.662 113.654 188.705 113.942 188.705 114.264ZM187.97 114.499V114.258C187.97 114.02 187.946 113.81 187.899 113.629C187.854 113.445 187.787 113.292 187.697 113.169C187.609 113.044 187.501 112.95 187.372 112.887C187.243 112.823 187.097 112.791 186.935 112.791C186.773 112.791 186.629 112.823 186.502 112.887C186.375 112.95 186.266 113.044 186.177 113.169C186.089 113.292 186.021 113.445 185.974 113.629C185.928 113.81 185.904 114.02 185.904 114.258V114.499C185.904 114.737 185.928 114.948 185.974 115.131C186.021 115.315 186.09 115.47 186.18 115.597C186.271 115.722 186.381 115.817 186.508 115.881C186.635 115.944 186.779 115.975 186.941 115.975C187.105 115.975 187.251 115.944 187.378 115.881C187.505 115.817 187.612 115.722 187.7 115.597C187.788 115.47 187.854 115.315 187.899 115.131C187.946 114.948 187.97 114.737 187.97 114.499ZM189.739 112.249H190.395L191.629 115.539L192.859 112.249H193.515L191.887 116.514H191.365L189.739 112.249ZM189.44 112.249H190.064L190.173 115.096V116.514H189.44V112.249ZM193.19 112.249H193.817V116.514H193.082V115.096L193.19 112.249ZM197.482 115.931V116.514H195.218V115.931H197.482ZM195.426 112.249V116.514H194.69V112.249H195.426ZM197.186 114.03V114.604H195.218V114.03H197.186ZM197.468 112.249V112.835H195.218V112.249H197.468ZM200.327 115.416C200.327 115.328 200.313 115.25 200.286 115.181C200.261 115.113 200.215 115.05 200.148 114.994C200.082 114.937 199.988 114.882 199.867 114.83C199.748 114.775 199.596 114.719 199.41 114.663C199.207 114.6 199.019 114.531 198.847 114.455C198.678 114.377 198.529 114.287 198.402 114.185C198.275 114.082 198.177 113.964 198.106 113.831C198.036 113.696 198.001 113.541 198.001 113.365C198.001 113.191 198.037 113.033 198.109 112.89C198.183 112.748 198.288 112.625 198.423 112.521C198.559 112.416 198.721 112.335 198.906 112.278C199.092 112.219 199.297 112.19 199.521 112.19C199.838 112.19 200.11 112.249 200.339 112.366C200.569 112.483 200.746 112.64 200.869 112.838C200.994 113.035 201.056 113.253 201.056 113.491H200.327C200.327 113.35 200.297 113.226 200.236 113.119C200.178 113.009 200.088 112.923 199.967 112.861C199.847 112.798 199.696 112.767 199.513 112.767C199.339 112.767 199.194 112.794 199.079 112.846C198.964 112.899 198.878 112.97 198.821 113.06C198.764 113.15 198.736 113.252 198.736 113.365C198.736 113.445 198.755 113.518 198.792 113.585C198.829 113.649 198.886 113.71 198.962 113.766C199.038 113.821 199.134 113.873 199.249 113.922C199.364 113.97 199.5 114.017 199.656 114.062C199.892 114.132 200.098 114.211 200.274 114.297C200.45 114.38 200.596 114.476 200.714 114.584C200.831 114.691 200.919 114.813 200.977 114.95C201.036 115.085 201.065 115.238 201.065 115.41C201.065 115.589 201.029 115.752 200.957 115.896C200.885 116.039 200.781 116.161 200.646 116.262C200.513 116.362 200.353 116.439 200.166 116.494C199.98 116.547 199.773 116.573 199.545 116.573C199.34 116.573 199.138 116.546 198.938 116.491C198.741 116.436 198.561 116.353 198.399 116.242C198.237 116.129 198.108 115.988 198.013 115.82C197.917 115.65 197.869 115.452 197.869 115.225H198.604C198.604 115.364 198.628 115.482 198.675 115.58C198.723 115.677 198.791 115.757 198.877 115.82C198.963 115.88 199.062 115.925 199.176 115.955C199.291 115.984 199.414 115.999 199.545 115.999C199.717 115.999 199.86 115.974 199.975 115.925C200.093 115.877 200.18 115.808 200.239 115.72C200.298 115.632 200.327 115.531 200.327 115.416ZM203.471 112.249V116.514H202.741V112.249H203.471ZM204.809 112.249V112.835H201.414V112.249H204.809ZM206.157 112.249V116.514H205.422V112.249H206.157ZM209.591 115.126H210.323C210.3 115.405 210.221 115.654 210.089 115.873C209.956 116.089 209.769 116.26 209.529 116.385C209.289 116.51 208.997 116.573 208.653 116.573C208.389 116.573 208.152 116.526 207.941 116.432C207.73 116.337 207.55 116.202 207.399 116.028C207.249 115.852 207.134 115.64 207.054 115.392C206.975 115.144 206.936 114.867 206.936 114.56V114.206C206.936 113.899 206.976 113.622 207.056 113.374C207.138 113.126 207.256 112.914 207.408 112.738C207.56 112.56 207.743 112.424 207.956 112.331C208.171 112.237 208.412 112.19 208.68 112.19C209.019 112.19 209.306 112.253 209.541 112.378C209.775 112.503 209.957 112.675 210.086 112.896C210.217 113.117 210.297 113.37 210.326 113.655H209.594C209.574 113.471 209.531 113.314 209.465 113.183C209.4 113.052 209.305 112.953 209.178 112.884C209.051 112.814 208.885 112.779 208.68 112.779C208.512 112.779 208.365 112.81 208.24 112.873C208.115 112.935 208.011 113.027 207.927 113.148C207.843 113.269 207.779 113.419 207.736 113.596C207.695 113.772 207.675 113.973 207.675 114.2V114.56C207.675 114.775 207.693 114.97 207.73 115.146C207.769 115.32 207.828 115.469 207.906 115.594C207.986 115.719 208.088 115.816 208.211 115.884C208.334 115.953 208.481 115.987 208.653 115.987C208.862 115.987 209.031 115.954 209.16 115.887C209.291 115.821 209.389 115.724 209.456 115.597C209.524 115.468 209.569 115.311 209.591 115.126ZM213.235 115.416C213.235 115.328 213.221 115.25 213.194 115.181C213.169 115.113 213.123 115.05 213.056 114.994C212.99 114.937 212.896 114.882 212.775 114.83C212.656 114.775 212.504 114.719 212.318 114.663C212.115 114.6 211.928 114.531 211.756 114.455C211.586 114.377 211.437 114.287 211.31 114.185C211.183 114.082 211.085 113.964 211.014 113.831C210.944 113.696 210.909 113.541 210.909 113.365C210.909 113.191 210.945 113.033 211.017 112.89C211.092 112.748 211.196 112.625 211.331 112.521C211.468 112.416 211.629 112.335 211.814 112.278C212 112.219 212.205 112.19 212.43 112.19C212.746 112.19 213.018 112.249 213.247 112.366C213.477 112.483 213.654 112.64 213.777 112.838C213.902 113.035 213.965 113.253 213.965 113.491H213.235C213.235 113.35 213.205 113.226 213.144 113.119C213.086 113.009 212.996 112.923 212.875 112.861C212.756 112.798 212.604 112.767 212.421 112.767C212.247 112.767 212.102 112.794 211.987 112.846C211.872 112.899 211.786 112.97 211.729 113.06C211.673 113.15 211.644 113.252 211.644 113.365C211.644 113.445 211.663 113.518 211.7 113.585C211.737 113.649 211.794 113.71 211.87 113.766C211.946 113.821 212.042 113.873 212.157 113.922C212.272 113.97 212.408 114.017 212.564 114.062C212.801 114.132 213.007 114.211 213.182 114.297C213.358 114.38 213.505 114.476 213.622 114.584C213.739 114.691 213.827 114.813 213.886 114.95C213.944 115.085 213.973 115.238 213.973 115.41C213.973 115.589 213.937 115.752 213.865 115.896C213.793 116.039 213.689 116.161 213.555 116.262C213.422 116.362 213.262 116.439 213.074 116.494C212.888 116.547 212.681 116.573 212.453 116.573C212.248 116.573 212.046 116.546 211.846 116.491C211.649 116.436 211.47 116.353 211.307 116.242C211.145 116.129 211.016 115.988 210.921 115.82C210.825 115.65 210.777 115.452 210.777 115.225H211.513C211.513 115.364 211.536 115.482 211.583 115.58C211.632 115.677 211.699 115.757 211.785 115.82C211.871 115.88 211.971 115.925 212.084 115.955C212.199 115.984 212.322 115.999 212.453 115.999C212.625 115.999 212.768 115.974 212.884 115.925C213.001 115.877 213.089 115.808 213.147 115.72C213.206 115.632 213.235 115.531 213.235 115.416Z" fill="#F58634"/>
<path fill-rule="evenodd" clip-rule="evenodd" d="M291.487 156.929C304.72 156.929 315.461 165.93 315.461 177.052C315.461 188.174 304.72 197.176 291.487 197.176C278.22 197.176 267.479 188.174 267.479 177.052C267.479 165.93 278.22 156.929 291.487 156.929Z" stroke="black"/>
<path d="M291.487 157.429C304.53 157.429 314.961 166.285 314.961 177.052C314.961 187.819 304.53 196.676 291.487 196.676C278.409 196.676 267.979 187.819 267.979 177.052C267.979 166.286 278.409 157.429 291.487 157.429Z" fill="#FEFEFE" stroke="black"/>
<path d="M234.222 118.608V123.585H233.364V118.608H234.222ZM239.236 118.608V123.585H238.378L236.146 120.02V123.585H235.288V118.608H236.146L238.385 122.18V118.608H239.236ZM241.704 123.585H240.641L240.648 122.905H241.704C242.011 122.905 242.269 122.837 242.476 122.703C242.686 122.569 242.843 122.376 242.948 122.125C243.055 121.875 243.109 121.576 243.109 121.23V120.96C243.109 120.691 243.078 120.453 243.016 120.246C242.957 120.038 242.868 119.864 242.75 119.723C242.633 119.581 242.49 119.474 242.319 119.401C242.15 119.328 241.956 119.292 241.735 119.292H240.62V118.608H241.735C242.065 118.608 242.367 118.664 242.64 118.776C242.914 118.885 243.15 119.044 243.348 119.251C243.548 119.458 243.702 119.707 243.809 119.996C243.916 120.285 243.97 120.609 243.97 120.967V121.23C243.97 121.588 243.916 121.911 243.809 122.201C243.702 122.49 243.548 122.738 243.348 122.946C243.147 123.151 242.908 123.309 242.63 123.421C242.354 123.53 242.046 123.585 241.704 123.585ZM241.116 118.608V123.585H240.258V118.608H241.116ZM247.624 118.608H248.478V121.934C248.478 122.312 248.396 122.629 248.232 122.884C248.068 123.139 247.845 123.332 247.562 123.462C247.282 123.589 246.969 123.653 246.622 123.653C246.265 123.653 245.945 123.589 245.665 123.462C245.385 123.332 245.164 123.139 245.002 122.884C244.843 122.629 244.763 122.312 244.763 121.934V118.608H245.617V121.934C245.617 122.173 245.658 122.37 245.74 122.525C245.822 122.678 245.939 122.791 246.089 122.864C246.239 122.937 246.417 122.973 246.622 122.973C246.827 122.973 247.004 122.937 247.152 122.864C247.302 122.791 247.419 122.678 247.501 122.525C247.583 122.37 247.624 122.173 247.624 121.934V118.608ZM252.029 122.303C252.029 122.201 252.014 122.109 251.982 122.03C251.952 121.95 251.898 121.877 251.821 121.811C251.744 121.745 251.634 121.681 251.493 121.62C251.354 121.556 251.176 121.491 250.96 121.425C250.723 121.352 250.504 121.271 250.303 121.182C250.105 121.091 249.932 120.986 249.784 120.868C249.636 120.747 249.521 120.609 249.439 120.454C249.357 120.297 249.316 120.116 249.316 119.911C249.316 119.708 249.358 119.523 249.442 119.357C249.529 119.191 249.651 119.047 249.808 118.926C249.967 118.803 250.155 118.709 250.372 118.642C250.588 118.574 250.827 118.54 251.09 118.54C251.459 118.54 251.777 118.608 252.043 118.745C252.312 118.882 252.518 119.065 252.662 119.295C252.808 119.525 252.881 119.78 252.881 120.058H252.029C252.029 119.893 251.994 119.749 251.924 119.623C251.855 119.496 251.75 119.396 251.609 119.323C251.47 119.25 251.293 119.213 251.079 119.213C250.876 119.213 250.708 119.244 250.573 119.306C250.439 119.367 250.339 119.45 250.273 119.555C250.207 119.66 250.174 119.778 250.174 119.911C250.174 120.004 250.195 120.089 250.238 120.167C250.282 120.242 250.348 120.313 250.437 120.379C250.526 120.443 250.637 120.503 250.772 120.56C250.906 120.617 251.064 120.672 251.247 120.724C251.522 120.806 251.763 120.897 251.968 120.997C252.173 121.095 252.344 121.207 252.481 121.332C252.617 121.458 252.72 121.6 252.788 121.76C252.857 121.917 252.891 122.096 252.891 122.296C252.891 122.506 252.849 122.695 252.764 122.864C252.68 123.03 252.559 123.172 252.402 123.291C252.247 123.407 252.06 123.497 251.841 123.561C251.625 123.622 251.383 123.653 251.117 123.653C250.878 123.653 250.642 123.621 250.409 123.558C250.179 123.494 249.97 123.397 249.78 123.267C249.591 123.135 249.441 122.971 249.329 122.775C249.218 122.577 249.162 122.345 249.162 122.081H250.02C250.02 122.243 250.047 122.381 250.102 122.495C250.159 122.608 250.237 122.702 250.338 122.775C250.438 122.845 250.554 122.898 250.686 122.932C250.821 122.966 250.964 122.983 251.117 122.983C251.317 122.983 251.485 122.955 251.619 122.898C251.756 122.841 251.859 122.761 251.927 122.659C251.995 122.556 252.029 122.438 252.029 122.303ZM255.697 118.608V123.585H254.846V118.608H255.697ZM257.259 118.608V119.292H253.298V118.608H257.259ZM257.915 118.608H259.675C260.054 118.608 260.376 118.665 260.643 118.779C260.909 118.893 261.113 119.062 261.255 119.285C261.398 119.506 261.47 119.78 261.47 120.105C261.47 120.354 261.424 120.572 261.333 120.762C261.242 120.951 261.113 121.11 260.947 121.24C260.781 121.368 260.582 121.467 260.352 121.538L260.092 121.664H258.51L258.503 120.984H259.689C259.894 120.984 260.065 120.947 260.202 120.874C260.339 120.802 260.441 120.702 260.509 120.577C260.58 120.449 260.615 120.306 260.615 120.146C260.615 119.973 260.581 119.823 260.513 119.695C260.447 119.565 260.344 119.466 260.205 119.398C260.066 119.327 259.89 119.292 259.675 119.292H258.773V123.585H257.915V118.608ZM260.756 123.585L259.587 121.35L260.486 121.346L261.672 123.54V123.585H260.756ZM263.24 118.608V123.585H262.383V118.608H263.24ZM266.306 119.271L264.82 123.585H263.921L265.794 118.608H266.368L266.306 119.271ZM267.55 123.585L266.06 119.271L265.995 118.608H266.573L268.453 123.585H267.55ZM267.479 121.739V122.419H264.772V121.739H267.479ZM272.127 122.905V123.585H269.629V122.905H272.127ZM269.868 118.608V123.585H269.01V118.608H269.868Z" fill="#F58634"/>
<path d="M228.237 161.312C228.237 161.194 228.219 161.09 228.182 160.999C228.148 160.908 228.087 160.825 227.999 160.749C227.91 160.674 227.785 160.601 227.624 160.53C227.465 160.457 227.262 160.383 227.014 160.308C226.744 160.224 226.494 160.132 226.264 160.03C226.038 159.926 225.84 159.806 225.671 159.671C225.501 159.533 225.37 159.375 225.276 159.198C225.182 159.019 225.135 158.812 225.135 158.577C225.135 158.345 225.184 158.135 225.28 157.944C225.379 157.754 225.518 157.59 225.698 157.452C225.88 157.312 226.095 157.204 226.342 157.128C226.59 157.05 226.863 157.011 227.163 157.011C227.585 157.011 227.948 157.089 228.253 157.245C228.56 157.401 228.796 157.611 228.96 157.874C229.126 158.137 229.21 158.428 229.21 158.745H228.237C228.237 158.558 228.197 158.392 228.116 158.249C228.038 158.103 227.918 157.989 227.757 157.905C227.598 157.822 227.396 157.78 227.151 157.78C226.919 157.78 226.727 157.816 226.573 157.886C226.419 157.956 226.305 158.051 226.229 158.171C226.154 158.291 226.116 158.426 226.116 158.577C226.116 158.684 226.141 158.782 226.19 158.87C226.24 158.956 226.315 159.037 226.417 159.112C226.518 159.185 226.646 159.254 226.799 159.319C226.953 159.385 227.134 159.447 227.342 159.507C227.658 159.601 227.932 159.705 228.167 159.819C228.401 159.931 228.596 160.059 228.753 160.202C228.909 160.345 229.026 160.508 229.104 160.691C229.182 160.87 229.221 161.075 229.221 161.304C229.221 161.543 229.173 161.76 229.077 161.952C228.98 162.142 228.842 162.305 228.663 162.441C228.486 162.573 228.272 162.676 228.022 162.749C227.775 162.819 227.499 162.855 227.194 162.855C226.921 162.855 226.651 162.818 226.385 162.745C226.122 162.672 225.883 162.562 225.667 162.413C225.451 162.262 225.279 162.075 225.151 161.851C225.023 161.624 224.96 161.36 224.96 161.058H225.94C225.94 161.243 225.971 161.4 226.034 161.53C226.099 161.661 226.189 161.767 226.303 161.851C226.418 161.931 226.551 161.991 226.702 162.03C226.855 162.069 227.02 162.089 227.194 162.089C227.423 162.089 227.615 162.056 227.768 161.991C227.924 161.926 228.042 161.835 228.12 161.718C228.198 161.601 228.237 161.465 228.237 161.312ZM233.448 160.925H234.424C234.393 161.297 234.289 161.629 234.112 161.921C233.935 162.21 233.686 162.438 233.366 162.605C233.046 162.771 232.656 162.855 232.198 162.855C231.846 162.855 231.53 162.792 231.249 162.667C230.967 162.539 230.727 162.36 230.526 162.128C230.326 161.894 230.172 161.611 230.065 161.28C229.961 160.95 229.909 160.58 229.909 160.171V159.698C229.909 159.289 229.962 158.92 230.069 158.589C230.178 158.258 230.335 157.976 230.538 157.741C230.741 157.504 230.984 157.323 231.268 157.198C231.555 157.073 231.876 157.011 232.233 157.011C232.686 157.011 233.069 157.094 233.382 157.261C233.694 157.428 233.936 157.658 234.108 157.952C234.283 158.247 234.389 158.584 234.428 158.964H233.452C233.426 158.719 233.369 158.51 233.28 158.335C233.194 158.161 233.066 158.028 232.897 157.937C232.728 157.843 232.507 157.796 232.233 157.796C232.009 157.796 231.814 157.838 231.647 157.921C231.48 158.004 231.341 158.127 231.229 158.288C231.117 158.45 231.033 158.649 230.975 158.886C230.921 159.12 230.893 159.388 230.893 159.691V160.171C230.893 160.457 230.918 160.718 230.967 160.952C231.02 161.184 231.098 161.383 231.202 161.55C231.309 161.717 231.444 161.845 231.608 161.937C231.772 162.028 231.969 162.073 232.198 162.073C232.477 162.073 232.702 162.029 232.874 161.941C233.048 161.852 233.18 161.723 233.268 161.554C233.359 161.382 233.419 161.172 233.448 160.925ZM239.073 159.464V160.241H236.053V159.464H239.073ZM236.296 157.089V162.776H235.315V157.089H236.296ZM239.827 157.089V162.776H238.85V157.089H239.827ZM245.53 159.776V160.089C245.53 160.519 245.474 160.904 245.362 161.245C245.25 161.586 245.09 161.877 244.882 162.116C244.676 162.356 244.428 162.539 244.139 162.667C243.85 162.792 243.53 162.855 243.178 162.855C242.829 162.855 242.51 162.792 242.221 162.667C241.935 162.539 241.686 162.356 241.475 162.116C241.264 161.877 241.1 161.586 240.983 161.245C240.869 160.904 240.811 160.519 240.811 160.089V159.776C240.811 159.347 240.869 158.963 240.983 158.624C241.098 158.283 241.259 157.993 241.467 157.753C241.678 157.511 241.927 157.327 242.214 157.202C242.503 157.075 242.822 157.011 243.171 157.011C243.522 157.011 243.842 157.075 244.132 157.202C244.421 157.327 244.669 157.511 244.878 157.753C245.086 157.993 245.246 158.283 245.358 158.624C245.473 158.963 245.53 159.347 245.53 159.776ZM244.549 160.089V159.769C244.549 159.451 244.518 159.171 244.456 158.929C244.396 158.684 244.306 158.48 244.186 158.316C244.069 158.149 243.924 158.024 243.753 157.941C243.581 157.855 243.387 157.812 243.171 157.812C242.954 157.812 242.762 157.855 242.592 157.941C242.423 158.024 242.279 158.149 242.159 158.316C242.042 158.48 241.952 158.684 241.889 158.929C241.827 159.171 241.796 159.451 241.796 159.769V160.089C241.796 160.407 241.827 160.688 241.889 160.933C241.952 161.178 242.043 161.385 242.163 161.554C242.285 161.72 242.431 161.847 242.6 161.933C242.77 162.016 242.962 162.058 243.178 162.058C243.397 162.058 243.591 162.016 243.76 161.933C243.93 161.847 244.073 161.72 244.19 161.554C244.307 161.385 244.396 161.178 244.456 160.933C244.518 160.688 244.549 160.407 244.549 160.089ZM251.046 159.776V160.089C251.046 160.519 250.99 160.904 250.878 161.245C250.766 161.586 250.605 161.877 250.397 162.116C250.191 162.356 249.944 162.539 249.655 162.667C249.366 162.792 249.046 162.855 248.694 162.855C248.345 162.855 248.026 162.792 247.737 162.667C247.451 162.539 247.202 162.356 246.991 162.116C246.78 161.877 246.616 161.586 246.499 161.245C246.384 160.904 246.327 160.519 246.327 160.089V159.776C246.327 159.347 246.384 158.963 246.499 158.624C246.613 158.283 246.775 157.993 246.983 157.753C247.194 157.511 247.443 157.327 247.729 157.202C248.018 157.075 248.337 157.011 248.686 157.011C249.038 157.011 249.358 157.075 249.647 157.202C249.936 157.327 250.185 157.511 250.393 157.753C250.602 157.993 250.762 158.283 250.874 158.624C250.988 158.963 251.046 159.347 251.046 159.776ZM250.065 160.089V159.769C250.065 159.451 250.034 159.171 249.971 158.929C249.911 158.684 249.822 158.48 249.702 158.316C249.585 158.149 249.44 158.024 249.268 157.941C249.096 157.855 248.902 157.812 248.686 157.812C248.47 157.812 248.277 157.855 248.108 157.941C247.939 158.024 247.794 158.149 247.674 158.316C247.557 158.48 247.467 158.684 247.405 158.929C247.342 159.171 247.311 159.451 247.311 159.769V160.089C247.311 160.407 247.342 160.688 247.405 160.933C247.467 161.178 247.559 161.385 247.678 161.554C247.801 161.72 247.947 161.847 248.116 161.933C248.285 162.016 248.478 162.058 248.694 162.058C248.913 162.058 249.107 162.016 249.276 161.933C249.445 161.847 249.589 161.72 249.706 161.554C249.823 161.385 249.911 161.178 249.971 160.933C250.034 160.688 250.065 160.407 250.065 160.089ZM255.589 161.999V162.776H252.733V161.999H255.589ZM253.007 157.089V162.776H252.026V157.089H253.007Z" fill="#F58634"/>
<path d="M269.906 174.891H271.666C272.044 174.891 272.367 174.948 272.633 175.062C272.9 175.176 273.104 175.344 273.245 175.567C273.389 175.788 273.461 176.062 273.461 176.388C273.461 176.636 273.415 176.855 273.324 177.044C273.233 177.233 273.104 177.393 272.938 177.523C272.771 177.65 272.573 177.749 272.343 177.82L272.083 177.946H270.501L270.494 177.266H271.68C271.885 177.266 272.056 177.23 272.193 177.157C272.329 177.084 272.432 176.985 272.5 176.859C272.571 176.732 272.606 176.588 272.606 176.429C272.606 176.256 272.572 176.105 272.504 175.978C272.437 175.848 272.335 175.749 272.196 175.68C272.057 175.61 271.88 175.574 271.666 175.574H270.764V179.867H269.906V174.891ZM272.746 179.867L271.577 177.632L272.476 177.628L273.662 179.823V179.867H272.746ZM277.572 179.187V179.867H274.93V179.187H277.572ZM275.173 174.891V179.867H274.315V174.891H275.173ZM277.227 176.969V177.639H274.93V176.969H277.227ZM277.555 174.891V175.574H274.93V174.891H277.555ZM280.891 178.585C280.891 178.483 280.875 178.392 280.843 178.312C280.814 178.232 280.76 178.159 280.683 178.093C280.605 178.027 280.496 177.963 280.355 177.902C280.216 177.838 280.038 177.773 279.821 177.707C279.584 177.634 279.366 177.553 279.165 177.464C278.967 177.373 278.794 177.268 278.646 177.15C278.498 177.029 278.382 176.891 278.3 176.736C278.218 176.579 278.177 176.398 278.177 176.193C278.177 175.99 278.22 175.806 278.304 175.639C278.39 175.473 278.512 175.329 278.67 175.209C278.829 175.085 279.017 174.991 279.234 174.925C279.45 174.856 279.689 174.822 279.951 174.822C280.32 174.822 280.638 174.891 280.905 175.027C281.174 175.164 281.38 175.348 281.524 175.578C281.669 175.808 281.742 176.062 281.742 176.34H280.891C280.891 176.176 280.856 176.031 280.785 175.906C280.717 175.778 280.612 175.678 280.471 175.605C280.332 175.532 280.155 175.496 279.941 175.496C279.738 175.496 279.57 175.526 279.435 175.588C279.301 175.649 279.2 175.733 279.134 175.837C279.068 175.942 279.035 176.061 279.035 176.193C279.035 176.286 279.057 176.372 279.1 176.449C279.144 176.524 279.21 176.595 279.298 176.661C279.387 176.725 279.499 176.785 279.633 176.842C279.768 176.899 279.926 176.954 280.109 177.006C280.384 177.088 280.625 177.18 280.83 177.28C281.035 177.378 281.206 177.489 281.342 177.615C281.479 177.74 281.582 177.883 281.65 178.042C281.718 178.199 281.753 178.378 281.753 178.579C281.753 178.788 281.71 178.977 281.626 179.146C281.542 179.312 281.421 179.455 281.264 179.573C281.109 179.689 280.922 179.78 280.703 179.843C280.487 179.905 280.245 179.936 279.979 179.936C279.739 179.936 279.504 179.904 279.271 179.84C279.041 179.776 278.831 179.679 278.642 179.549C278.453 179.417 278.303 179.253 278.191 179.057C278.079 178.859 278.024 178.628 278.024 178.363H278.881C278.881 178.525 278.909 178.663 278.964 178.777C279.02 178.891 279.099 178.984 279.199 179.057C279.3 179.128 279.416 179.18 279.548 179.214C279.682 179.249 279.826 179.266 279.979 179.266C280.179 179.266 280.347 179.237 280.481 179.18C280.618 179.123 280.72 179.044 280.789 178.941C280.857 178.838 280.891 178.72 280.891 178.585ZM284.559 174.891V179.867H283.708V174.891H284.559ZM286.121 174.891V175.574H282.159V174.891H286.121ZM288.387 175.554L286.9 179.867H286.001L287.874 174.891H288.448L288.387 175.554ZM289.631 179.867L288.141 175.554L288.076 174.891H288.653L290.533 179.867H289.631ZM289.559 178.022V178.702H286.852V178.022H289.559ZM293.821 174.891H294.676V178.216C294.676 178.595 294.594 178.911 294.43 179.167C294.266 179.422 294.042 179.614 293.76 179.744C293.48 179.872 293.166 179.936 292.82 179.936C292.462 179.936 292.143 179.872 291.863 179.744C291.583 179.614 291.362 179.422 291.2 179.167C291.04 178.911 290.961 178.595 290.961 178.216V174.891H291.815V178.216C291.815 178.456 291.856 178.653 291.938 178.808C292.02 178.96 292.136 179.073 292.287 179.146C292.437 179.219 292.615 179.255 292.82 179.255C293.025 179.255 293.202 179.219 293.35 179.146C293.5 179.073 293.616 178.96 293.698 178.808C293.78 178.653 293.821 178.456 293.821 178.216V174.891ZM295.609 174.891H297.369C297.748 174.891 298.07 174.948 298.337 175.062C298.603 175.176 298.807 175.344 298.948 175.567C299.092 175.788 299.164 176.062 299.164 176.388C299.164 176.636 299.118 176.855 299.027 177.044C298.936 177.233 298.807 177.393 298.641 177.523C298.474 177.65 298.276 177.749 298.046 177.82L297.786 177.946H296.204L296.197 177.266H297.383C297.588 177.266 297.759 177.23 297.896 177.157C298.032 177.084 298.135 176.985 298.203 176.859C298.274 176.732 298.309 176.588 298.309 176.429C298.309 176.256 298.275 176.105 298.207 175.978C298.141 175.848 298.038 175.749 297.899 175.68C297.76 175.61 297.583 175.574 297.369 175.574H296.467V179.867H295.609V174.891ZM298.449 179.867L297.28 177.632L298.179 177.628L299.365 179.823V179.867H298.449ZM301.956 175.554L300.469 179.867H299.57L301.443 174.891H302.018L301.956 175.554ZM303.2 179.867L301.71 175.554L301.645 174.891H302.223L304.103 179.867H303.2ZM303.129 178.022V178.702H300.422V178.022H303.129ZM308.608 174.891V179.867H307.75L305.518 176.302V179.867H304.66V174.891H305.518L307.756 178.462V174.891H308.608ZM311.574 174.891V179.867H310.723V174.891H311.574ZM313.136 174.891V175.574H309.175V174.891H313.136Z" fill="#F58634"/>
<path d="M270.323 170.753H270.382C270.396 170.753 270.407 170.755 270.416 170.759C270.426 170.764 270.433 170.77 270.438 170.778C270.443 170.786 270.445 170.796 270.445 170.807C270.445 170.816 270.443 170.823 270.44 170.83C270.437 170.837 270.432 170.842 270.426 170.847C270.42 170.852 270.412 170.855 270.404 170.858L270.397 170.86H270.341L270.341 170.841H270.383C270.391 170.841 270.399 170.839 270.404 170.836C270.41 170.833 270.414 170.829 270.417 170.824C270.42 170.819 270.421 170.813 270.421 170.807C270.421 170.8 270.42 170.794 270.417 170.789C270.415 170.784 270.41 170.78 270.404 170.777C270.399 170.774 270.391 170.773 270.382 170.773H270.346V170.933H270.323V170.753ZM270.428 170.933L270.384 170.852L270.409 170.852L270.453 170.932V170.933H270.428ZM270.593 170.914V170.933H270.498V170.914H270.593ZM270.502 170.753V170.933H270.479V170.753H270.502ZM270.58 170.831V170.85H270.498V170.831H270.58ZM270.592 170.753V170.773H270.498V170.753H270.592ZM270.718 170.888C270.718 170.884 270.718 170.88 270.716 170.877C270.715 170.873 270.713 170.87 270.71 170.868C270.707 170.865 270.702 170.863 270.697 170.86C270.691 170.858 270.684 170.855 270.676 170.853C270.667 170.85 270.659 170.847 270.652 170.844C270.644 170.841 270.638 170.837 270.633 170.833C270.628 170.829 270.624 170.824 270.621 170.818C270.619 170.813 270.617 170.807 270.617 170.8C270.617 170.793 270.619 170.786 270.622 170.78C270.624 170.774 270.629 170.769 270.634 170.765C270.639 170.76 270.646 170.757 270.653 170.754C270.661 170.752 270.669 170.751 270.678 170.751C270.692 170.751 270.703 170.753 270.713 170.759C270.722 170.764 270.73 170.77 270.734 170.779C270.739 170.787 270.742 170.796 270.742 170.805H270.718C270.718 170.798 270.717 170.792 270.714 170.787C270.711 170.782 270.707 170.778 270.701 170.775C270.695 170.772 270.687 170.77 270.678 170.77C270.67 170.77 270.663 170.772 270.657 170.774C270.652 170.777 270.648 170.78 270.645 170.785C270.642 170.789 270.641 170.794 270.641 170.799C270.641 170.803 270.642 170.807 270.643 170.81C270.645 170.813 270.648 170.816 270.651 170.818C270.654 170.821 270.659 170.823 270.664 170.826C270.669 170.828 270.676 170.83 270.683 170.832C270.694 170.835 270.702 170.838 270.71 170.842C270.717 170.845 270.723 170.849 270.728 170.854C270.733 170.858 270.736 170.863 270.739 170.869C270.741 170.874 270.742 170.88 270.742 170.887C270.742 170.895 270.741 170.901 270.738 170.907C270.735 170.913 270.731 170.918 270.725 170.923C270.72 170.927 270.713 170.93 270.705 170.932C270.698 170.935 270.689 170.936 270.68 170.936C270.671 170.936 270.663 170.935 270.655 170.932C270.647 170.93 270.64 170.926 270.633 170.922C270.627 170.917 270.621 170.912 270.617 170.905C270.614 170.898 270.612 170.89 270.612 170.881H270.635C270.635 170.887 270.637 170.893 270.639 170.897C270.641 170.901 270.645 170.905 270.649 170.908C270.653 170.911 270.658 170.913 270.663 170.914C270.668 170.916 270.674 170.916 270.68 170.916C270.688 170.916 270.695 170.915 270.701 170.913C270.706 170.911 270.711 170.907 270.714 170.903C270.717 170.899 270.718 170.894 270.718 170.888ZM270.839 170.753V170.933H270.816V170.753H270.839ZM270.897 170.753V170.773H270.758V170.753H270.897ZM270.981 170.769L270.921 170.933H270.897L270.965 170.753H270.981L270.981 170.769ZM271.031 170.933L270.971 170.769L270.97 170.753H270.986L271.055 170.933H271.031ZM271.027 170.867V170.886H270.926V170.867H271.027ZM271.18 170.753H271.204V170.875C271.204 170.889 271.201 170.9 271.195 170.909C271.189 170.918 271.181 170.925 271.171 170.929C271.161 170.933 271.15 170.936 271.138 170.936C271.126 170.936 271.115 170.933 271.105 170.929C271.095 170.925 271.088 170.918 271.082 170.909C271.076 170.9 271.073 170.889 271.073 170.875V170.753H271.097V170.875C271.097 170.884 271.099 170.892 271.102 170.898C271.106 170.904 271.11 170.909 271.117 170.912C271.123 170.915 271.13 170.916 271.138 170.916C271.147 170.916 271.154 170.915 271.16 170.912C271.166 170.909 271.171 170.904 271.175 170.898C271.178 170.892 271.18 170.884 271.18 170.875V170.753ZM271.241 170.753H271.301C271.314 170.753 271.326 170.755 271.335 170.759C271.344 170.764 271.351 170.77 271.356 170.778C271.361 170.786 271.364 170.796 271.364 170.807C271.364 170.816 271.362 170.823 271.359 170.83C271.355 170.837 271.351 170.842 271.344 170.847C271.338 170.852 271.331 170.855 271.322 170.858L271.315 170.86H271.259L271.259 170.841H271.301C271.31 170.841 271.317 170.839 271.323 170.836C271.329 170.833 271.333 170.829 271.336 170.824C271.339 170.819 271.34 170.813 271.34 170.807C271.34 170.8 271.339 170.794 271.336 170.789C271.333 170.784 271.329 170.78 271.323 170.777C271.317 170.774 271.31 170.773 271.301 170.773H271.265V170.933H271.241V170.753ZM271.346 170.933L271.303 170.852L271.327 170.852L271.372 170.932V170.933H271.346ZM271.464 170.769L271.404 170.933H271.38L271.448 170.753H271.464L271.464 170.769ZM271.514 170.933L271.454 170.769L271.454 170.753H271.469L271.538 170.933H271.514ZM271.511 170.867V170.886H271.409V170.867H271.511ZM271.701 170.753V170.933H271.677L271.586 170.794V170.933H271.562V170.753H271.586L271.677 170.892V170.753H271.701ZM271.806 170.753V170.933H271.782V170.753H271.806ZM271.864 170.753V170.773H271.725V170.753H271.864Z" fill="#F58634"/>
<path d="M273.736 218.761V219.539H270.716V218.761H273.736ZM270.959 216.386V222.074H269.978V216.386H270.959ZM274.49 216.386V222.074H273.513V216.386H274.49ZM280.193 219.074V219.386C280.193 219.816 280.137 220.202 280.025 220.543C279.913 220.884 279.753 221.174 279.545 221.414C279.339 221.653 279.091 221.837 278.802 221.965C278.513 222.09 278.193 222.152 277.841 222.152C277.492 222.152 277.173 222.09 276.884 221.965C276.598 221.837 276.349 221.653 276.138 221.414C275.927 221.174 275.763 220.884 275.646 220.543C275.532 220.202 275.474 219.816 275.474 219.386V219.074C275.474 218.644 275.532 218.26 275.646 217.922C275.761 217.58 275.922 217.29 276.13 217.051C276.341 216.808 276.59 216.625 276.877 216.5C277.166 216.372 277.485 216.308 277.834 216.308C278.185 216.308 278.505 216.372 278.795 216.5C279.084 216.625 279.332 216.808 279.541 217.051C279.749 217.29 279.909 217.58 280.021 217.922C280.136 218.26 280.193 218.644 280.193 219.074ZM279.213 219.386V219.066C279.213 218.748 279.181 218.469 279.119 218.226C279.059 217.982 278.969 217.777 278.849 217.613C278.732 217.446 278.588 217.321 278.416 217.238C278.244 217.152 278.05 217.109 277.834 217.109C277.617 217.109 277.425 217.152 277.255 217.238C277.086 217.321 276.942 217.446 276.822 217.613C276.705 217.777 276.615 217.982 276.552 218.226C276.49 218.469 276.459 218.748 276.459 219.066V219.386C276.459 219.704 276.49 219.985 276.552 220.23C276.615 220.475 276.706 220.682 276.826 220.851C276.948 221.018 277.094 221.144 277.263 221.23C277.433 221.314 277.625 221.355 277.841 221.355C278.06 221.355 278.254 221.314 278.423 221.23C278.593 221.144 278.736 221.018 278.853 220.851C278.97 220.682 279.059 220.475 279.119 220.23C279.181 219.985 279.213 219.704 279.213 219.386ZM284.166 220.609C284.166 220.492 284.147 220.388 284.111 220.297C284.077 220.205 284.016 220.122 283.927 220.047C283.839 219.971 283.714 219.898 283.552 219.828C283.394 219.755 283.19 219.681 282.943 219.605C282.672 219.522 282.422 219.429 282.193 219.328C281.966 219.224 281.769 219.104 281.599 218.969C281.43 218.83 281.298 218.673 281.205 218.496C281.111 218.316 281.064 218.109 281.064 217.875C281.064 217.643 281.112 217.432 281.209 217.242C281.308 217.052 281.447 216.888 281.627 216.75C281.809 216.609 282.024 216.501 282.271 216.426C282.519 216.347 282.792 216.308 283.091 216.308C283.513 216.308 283.877 216.386 284.181 216.543C284.489 216.699 284.724 216.909 284.888 217.172C285.055 217.435 285.138 217.725 285.138 218.043H284.166C284.166 217.855 284.125 217.69 284.045 217.547C283.966 217.401 283.847 217.286 283.685 217.203C283.526 217.12 283.325 217.078 283.08 217.078C282.848 217.078 282.655 217.113 282.502 217.183C282.348 217.254 282.233 217.349 282.158 217.469C282.082 217.588 282.045 217.724 282.045 217.875C282.045 217.982 282.069 218.079 282.119 218.168C282.168 218.254 282.244 218.334 282.345 218.41C282.447 218.483 282.575 218.552 282.728 218.617C282.882 218.682 283.063 218.745 283.271 218.804C283.586 218.898 283.861 219.002 284.095 219.117C284.33 219.229 284.525 219.357 284.681 219.5C284.838 219.643 284.955 219.806 285.033 219.988C285.111 220.168 285.15 220.372 285.15 220.601C285.15 220.841 285.102 221.057 285.005 221.25C284.909 221.44 284.771 221.603 284.591 221.738C284.414 221.871 284.201 221.974 283.951 222.047C283.703 222.117 283.427 222.152 283.123 222.152C282.849 222.152 282.58 222.116 282.314 222.043C282.051 221.97 281.811 221.859 281.595 221.711C281.379 221.56 281.207 221.372 281.08 221.148C280.952 220.922 280.888 220.657 280.888 220.355H281.869C281.869 220.54 281.9 220.698 281.963 220.828C282.028 220.958 282.117 221.065 282.232 221.148C282.347 221.229 282.479 221.289 282.63 221.328C282.784 221.367 282.948 221.386 283.123 221.386C283.352 221.386 283.543 221.354 283.697 221.289C283.853 221.224 283.97 221.133 284.048 221.015C284.127 220.898 284.166 220.763 284.166 220.609ZM288.177 219.953H286.697V219.176H288.177C288.435 219.176 288.644 219.134 288.802 219.051C288.961 218.967 289.077 218.853 289.15 218.707C289.226 218.558 289.263 218.389 289.263 218.199C289.263 218.019 289.226 217.851 289.15 217.695C289.077 217.536 288.961 217.409 288.802 217.312C288.644 217.216 288.435 217.168 288.177 217.168H286.998V222.074H286.017V216.386H288.177C288.617 216.386 288.991 216.465 289.298 216.621C289.608 216.774 289.844 216.988 290.005 217.261C290.167 217.532 290.248 217.842 290.248 218.191C290.248 218.558 290.167 218.873 290.005 219.136C289.844 219.399 289.608 219.601 289.298 219.742C288.991 219.883 288.617 219.953 288.177 219.953ZM292.173 216.386V222.074H291.193V216.386H292.173ZM295.615 216.386V222.074H294.642V216.386H295.615ZM297.4 216.386V217.168H292.873V216.386H297.4ZM299.99 217.144L298.291 222.074H297.263L299.404 216.386H300.06L299.99 217.144ZM301.412 222.074L299.709 217.144L299.634 216.386H300.295L302.443 222.074H301.412ZM301.33 219.965V220.742H298.236V219.965H301.33ZM306.642 221.297V222.074H303.787V221.297H306.642ZM304.06 216.386V222.074H303.08V216.386H304.06Z" fill="#F58634"/>
<path d="M283.703 230.342V231.119H280.683V230.342H283.703ZM280.961 225.432V231.119H279.98V225.432H280.961ZM283.308 227.807V228.572H280.683V227.807H283.308ZM283.683 225.432V226.213H280.683V225.432H283.683ZM286.922 225.432V231.119H285.949V225.432H286.922ZM288.707 225.432V226.213H284.179V225.432H288.707ZM292.707 229.268H293.683C293.652 229.64 293.548 229.972 293.371 230.264C293.194 230.553 292.945 230.781 292.625 230.947C292.304 231.114 291.915 231.197 291.457 231.197C291.105 231.197 290.789 231.135 290.508 231.01C290.226 230.882 289.985 230.703 289.785 230.471C289.584 230.237 289.431 229.954 289.324 229.623C289.22 229.293 289.168 228.923 289.168 228.514V228.041C289.168 227.632 289.221 227.263 289.328 226.932C289.437 226.601 289.594 226.319 289.797 226.084C290 225.847 290.243 225.666 290.527 225.541C290.814 225.416 291.135 225.354 291.492 225.354C291.945 225.354 292.328 225.437 292.64 225.604C292.953 225.77 293.195 226.001 293.367 226.295C293.541 226.589 293.648 226.927 293.687 227.307H292.711C292.685 227.062 292.627 226.852 292.539 226.678C292.453 226.503 292.325 226.371 292.156 226.279C291.987 226.186 291.765 226.139 291.492 226.139C291.268 226.139 291.073 226.181 290.906 226.264C290.739 226.347 290.6 226.47 290.488 226.631C290.376 226.793 290.291 226.992 290.234 227.229C290.179 227.463 290.152 227.731 290.152 228.033V228.514C290.152 228.8 290.177 229.061 290.226 229.295C290.278 229.527 290.357 229.726 290.461 229.893C290.567 230.059 290.703 230.188 290.867 230.279C291.031 230.371 291.228 230.416 291.457 230.416C291.735 230.416 291.961 230.372 292.133 230.283C292.307 230.195 292.439 230.066 292.527 229.897C292.618 229.725 292.678 229.515 292.707 229.268ZM294.519 230.651C294.519 230.505 294.569 230.382 294.668 230.283C294.767 230.182 294.901 230.131 295.07 230.131C295.242 230.131 295.376 230.182 295.472 230.283C295.571 230.382 295.621 230.505 295.621 230.651C295.621 230.796 295.571 230.919 295.472 231.018C295.376 231.117 295.242 231.166 295.07 231.166C294.901 231.166 294.767 231.117 294.668 231.018C294.569 230.919 294.519 230.796 294.519 230.651Z" fill="#F58634"/>
<path fill-rule="evenodd" clip-rule="evenodd" d="M170.042 123.303L170.147 109.205C178.36 111.214 173.832 122.968 170.042 123.303Z" fill="#FEFEFE"/>
</svg>
